{
  "accessors": [
    {
      "name": "default_indices",
      "componentType": 5123,
      "count": 240,
      "min": [
        0
      ],
      "max": [
        127
      ],
      "type": "SCALAR",
      "bufferView": 0,
      "byteOffset": 0
    },
    {
      "name": "default_positions",
      "componentType": 5126,
      "count": 128,
      "min": [
        -100,
        0,
        -378.034851
      ],
      "max": [
        105.192863,
        208.333008,
        54.6768074
      ],
      "type": "VEC3",
      "bufferView": 1,
      "byteOffset": 0
    },
    {
      "name": "default_normals",
      "componentType": 5126,
      "count": 128,
      "type": "VEC3",
      "bufferView": 2,
      "byteOffset": 0
    },
    {
      "name": "default_texcoords",
      "componentType": 5126,
      "count": 128,
      "type": "VEC2",
      "bufferView": 3,
      "byteOffset": 0
    },
    {
      "name": "default_1_indices",
      "componentType": 5123,
      "count": 24,
      "min": [
        0
      ],
      "max": [
        15
      ],
      "type": "SCALAR",
      "bufferView": 0,
      "byteOffset": 480
    },
    {
      "name": "default_1_positions",
      "componentType": 5126,
      "count": 16,
      "min": [
        0,
        0,
        -369.934845
      ],
      "max": [
        105.192863,
        196.040146,
        45.66007
      ],
      "type": "VEC3",
      "bufferView": 1,
      "byteOffset": 1536
    },
    {
      "name": "default_1_normals",
      "componentType": 5126,
      "count": 16,
      "type": "VEC3",
      "bufferView": 2,
      "byteOffset": 1536
    },
    {
      "name": "default_1_texcoords",
      "componentType": 5126,
      "count": 16,
      "type": "VEC2",
      "bufferView": 3,
      "byteOffset": 1024
    },
    {
      "name": "default_2_indices",
      "componentType": 5123,
      "count": 24,
      "min": [
        0
      ],
      "max": [
        15
      ],
      "type": "SCALAR",
      "bufferView": 0,
      "byteOffset": 528
    },
    {
      "name": "default_2_positions",
      "componentType": 5126,
      "count": 16,
      "min": [
        -100,
        0,
        -378.034851
      ],
      "max": [
        0,
        202.333008,
        51.9529343
      ],
      "type": "VEC3",
      "bufferView": 1,
      "byteOffset": 1728
    },
    {
      "name": "default_2_normals",
      "componentType": 5126,
      "count": 16,
      "type": "VEC3",
      "bufferView": 2,
      "byteOffset": 1728
    },
    {
      "name": "default_2_texcoords",
      "componentType": 5126,
      "count": 16,
      "type": "VEC2",
      "bufferView": 3,
      "byteOffset": 1152
    },
    {
      "name": "default_3_indices",
      "componentType": 5123,
      "count": 252,
      "min": [
        0
      ],
      "max": [
        151
      ],
      "type": "SCALAR",
      "bufferView": 0,
      "byteOffset": 576
    },
    {
      "name": "default_3_positions",
      "componentType": 5126,
      "count": 152,
      "min": [
        -100,
        0,
        -378.034851
      ],
      "max": [
        105.192863,
        208.333008,
        54.6768074
      ],
      "type": "VEC3",
      "bufferView": 1,
      "byteOffset": 1920
    },
    {
      "name": "default_3_normals",
      "componentType": 5126,
      "count": 152,
      "type": "VEC3",
      "bufferView": 2,
      "byteOffset": 1920
    }
  ],
  "asset": {
    "generator": "arctron",
    "version": "2.0"
  },
  "buffers": [
    {
      "name": "Indices",
      "byteLength": 1080,
      "uri": "Indices.bin"
    },
    {
      "name": "Positions",
      "byteLength": 3744,
      "uri": "Positions.bin"
    },
    {
      "name": "Normals",
      "byteLength": 3744,
      "uri": "Normals.bin"
    },
    {
      "name": "Uvs",
      "byteLength": 1280,
      "uri": "Uvs.bin"
    }
  ],
  "bufferViews": [
    {
      "name": "Indexes",
      "buffer": 0,
      "byteLength": 1080,
      "byteOffset": 0,
      "target": 34963
    },
    {
      "name": "Positions",
      "buffer": 1,
      "byteLength": 3744,
      "byteOffset": 0,
      "byteStride": 12,
      "target": 34962
    },
    {
      "name": "Normals",
      "buffer": 2,
      "byteLength": 3744,
      "byteOffset": 0,
      "byteStride": 12
    },
    {
      "name": "Uvs",
      "buffer": 3,
      "byteLength": 1280,
      "byteOffset": 0,
      "byteStride": 8
    }
  ],
  "images": [
    {
      "name": "texture\\server top, bottom, side.jpg",
      "uri": "texture\\server top, bottom, side.jpg"
    },
    {
      "name": "texture\\server front.png",
      "uri": "texture\\server front.png"
    },
    {
      "name": "texture\\Server_back side.jpg",
      "uri": "texture\\Server_back side.jpg"
    }
  ],
  "materials": [
    {
      "pbrMetallicRoughness": {
        "baseColorFactor": [
          0.5,
          0.5,
          0.5,
          1.0
        ],
        "metallicFactor": 0.0,
        "roughnessFactor": 1.0
      },
      "alphaMode": "OPAQUE",
      "doubleSided": false
    },
    {
      "name": "default",
      "pbrMetallicRoughness": {
        "baseColorFactor": [
          1.0,
          1.0,
          1.0,
          1.0
        ],
        "metallicFactor": 0.0,
        "roughnessFactor": 1.0
      },
      "alphaMode": "OPAQUE",
      "doubleSided": false
    },
    {
      "name": "Mat",
      "pbrMetallicRoughness": {
        "baseColorFactor": [
          0.80000001192093,
          0.80000001192093,
          0.80000001192093,
          1.0
        ],
        "baseColorTexture": {
          "index": 0
        },
        "metallicFactor": 0.0,
        "roughnessFactor": 0.95
      },
      "alphaMode": "OPAQUE",
      "doubleSided": false
    },
    {
      "name": "Mat_1",
      "pbrMetallicRoughness": {
        "baseColorFactor": [
          0.80000001192093,
          0.80000001192093,
          0.80000001192093,
          1.0
        ],
        "baseColorTexture": {
          "index": 1
        },
        "metallicFactor": 0.0,
        "roughnessFactor": 0.95
      },
      "alphaMode": "OPAQUE",
      "doubleSided": false
    },
    {
      "name": "Mat_2",
      "pbrMetallicRoughness": {
        "baseColorFactor": [
          0.80000001192093,
          0.80000001192093,
          0.80000001192093,
          1.0
        ],
        "baseColorTexture": {
          "index": 2
        },
        "metallicFactor": 0.0,
        "roughnessFactor": 0.95
      },
      "alphaMode": "OPAQUE",
      "doubleSided": false
    }
  ],
  "meshes": [
    {
      "name": "default",
      "primitives": [
        {
          "attributes": {
            "POSITION": 1,
            "NORMAL": 2,
            "TEXCOORD_0": 3
          },
          "indices": 0,
          "material": 2,
          "mode": 4
        },
        {
          "attributes": {
            "POSITION": 5,
            "NORMAL": 6,
            "TEXCOORD_0": 7
          },
          "indices": 4,
          "material": 3,
          "mode": 4
        },
        {
          "attributes": {
            "POSITION": 9,
            "NORMAL": 10,
            "TEXCOORD_0": 11
          },
          "indices": 8,
          "material": 4,
          "mode": 4
        },
        {
          "attributes": {
            "POSITION": 13,
            "NORMAL": 14
          },
          "indices": 12,
          "material": 1,
          "mode": 4
        }
      ]
    }
  ],
  "nodes": [
    {
      "name": "default",
      "mesh": 0
    }
  ],
  "samplers": [
    {
      "magFilter": 9729,
      "minFilter": 9986,
      "wrapS": 10497,
      "wrapT": 10497
    }
  ],
  "scene": 0,
  "scenes": [
    {
      "nodes": [
        0
      ]
    }
  ],
  "textures": [
    {
      "name": "texture\\server top, bottom, side.jpg",
      "sampler": 0,
      "source": 0
    },
    {
      "name": "texture\\server front.png",
      "sampler": 0,
      "source": 1
    },
    {
      "name": "texture\\Server_back side.jpg",
      "sampler": 0,
      "source": 2
    }
  ]
}